<?xml version="1.0" encoding="utf-8"?><!-- Uploaded to: SVG Repo, www.svgrepo.com, Generator: SVG Repo Mixer Tools -->
<svg width="32px" height="32px" viewBox="0 0 24 24" fill="none" xmlns="http://www.w3.org/2000/svg">
<path d="M7 3V2C7 1.44772 6.55228 1 6 1C5.44772 1 5 1.44772 5 2V3H4C2.34315 3 1 4.34315 1 6V8H23V6C23 4.34315 21.6569 3 20 3H19V2C19 1.44772 18.5523 1 18 1C17.4477 1 17 1.44772 17 2V3H7Z" fill="#1C274C"/>
<path d="M23 10H1V18C1 19.6569 2.34315 21 4 21H10.5L10.9 19.2C10.9667 18.9 11.1 18.6167 11.3 18.35L15.35 14.3C15.7333 13.9167 16.2 13.7 16.7 13.7C17.2 13.7 17.65 13.9 18.0062 14.25L19.0062 13.25C19.7562 12.5 20.9 12.5 21.65 13.25C22.4 14 22.4 15.1438 21.65 15.8938L21 16.5438V10V10ZM7 17H10C10.5523 17 11 16.5523 11 16C11 15.4477 10.5523 15 10 15H7C6.44772 15 6 15.4477 6 16C6 16.5523 6.44772 17 7 17ZM7 13H13C13.5523 13 14 12.5523 14 12C14 11.4477 13.5523 11 13 11H7C6.44772 11 6 11.4477 6 12C6 12.5523 6.44772 13 7 13Z" fill="#1C274C"/>
<path d="M13 19.5L12.5 22L15 21.5L20.9 15.6C21.2 15.3 21.2 14.8438 20.9 14.5438L20.4062 14.05C20.1062 13.75 19.65 13.75 19.35 14.05L13 19.5Z" fill="#1C274C"/>
</svg>
